<svg width="24" height="25" viewBox="0 0 24 25" fill="none" xmlns="http://www.w3.org/2000/svg">
<path d="M16 18.2H22M22 10.2H2M22 13.7V8.40001C22 7.27991 22 6.71986 21.782 6.29203C21.5903 5.91571 21.2843 5.60975 20.908 5.418C20.4802 5.20001 19.9201 5.20001 18.8 5.20001H5.2C4.0799 5.20001 3.51984 5.20001 3.09202 5.418C2.7157 5.60975 2.40973 5.91571 2.21799 6.29203C2 6.71985 2 7.27991 2 8.40001V16C2 17.1201 2 17.6802 2.21799 18.108C2.40973 18.4843 2.71569 18.7903 3.09202 18.982C3.51984 19.2 4.0799 19.2 5.2 19.2H12" stroke="#BAC2DE" stroke-width="2" stroke-linecap="round" stroke-linejoin="round"/>
</svg>
