<svg xmlns="http://www.w3.org/2000/svg" width="230" height="100" viewBox="0 0 230 100"><path d="M25.54 56.21a12 12 0 0 1-.54 2.5c.94 1.05 3.19 1.64 4.57 1.64 3.82 0 6.94-2.4 6.94-6.4 0-6-8.86-3.91-8.86-9.1 0-1.98 1.61-3.28 3.55-3.28 1.66 0 2.88.92 3.47 2.45h.28c.23-.8.43-1.59.77-2.3a6.27 6.27 0 0 0-3.98-1.35c-3.37 0-6.23 1.76-6.23 5.38 0 6.35 8.8 4.06 8.8 9.26 0 2.22-1.63 4.11-3.9 4.11-2.2 0-3.45-1.12-4.54-2.9h-.33zm24.7.92c-.77.74-2.25 1.94-4.17 1.94-3.39 0-5.1-2.7-4.84-5.84h3.95c1.89 0 3.8.02 5.7.07.27-4.7-2.59-6.88-5.7-6.88-4.18 0-6.43 3-6.43 6.9 0 4.37 2.76 6.92 6.64 6.92 1.7 0 3.44-.66 4.82-1.65l.02-1.46zm-9.01-4.95c.18-2.35 1.32-4.9 3.95-4.9 2.78 0 3.45 2.45 3.52 4.9h-7.47zm23.32 4.95c-.77.74-2.25 1.94-4.16 1.94-3.4 0-5.1-2.7-4.85-5.84h3.95c1.9 0 3.8.02 5.7.07.27-4.7-2.58-6.88-5.7-6.88-4.18 0-6.42 3-6.42 6.9 0 4.37 2.75 6.92 6.63 6.92 1.7 0 3.44-.66 4.82-1.65l.03-1.46zm-9.01-4.95c.18-2.35 1.33-4.9 3.95-4.9 2.79 0 3.45 2.45 3.53 4.9h-7.48zm14.24-13.27c-.44.03-.77.08-1.13.08-.38 0-.76-.05-1.12-.08v21.1c.36-.02.74-.07 1.12-.07.36 0 .7.05 1.13.07v-5.74c0-1.2.38-1.3 1.02-.58 1.78 2.04 4 4.54 5.36 6.32.45-.02.89-.07 1.4-.07.46 0 .84.05 1.38.07v-.15c-2.22-2.52-4.57-5.33-6.61-7.68 2.58-2.45 5.05-4.41 6.17-5.4v-.21c-.43.02-.76.07-1.1.07-.38 0-.76-.05-1.12-.07l-2.2 2.42-1.73 1.76c-.35.36-1.86 1.97-2.45 1.66-.25-.15-.12-.56-.12-.92V38.91zm13.5 7.68c-.44.03-.77.08-1.13.08-.38 0-.76-.05-1.12-.08v13.42c.36-.02.74-.07 1.12-.07.36 0 .72.05 1.12.07V46.6zm.3-4.82a1.43 1.43 0 1 0-1.43 1.43c.74.03 1.43-.64 1.43-1.43zm2.1 18.24c.35-.02.73-.07 1.11-.07.36 0 .72.05 1.13.07v-6.5c0-3.45.74-5.62 3.67-5.62 2.63 0 3.11 2.05 3.11 4.67v7.45c.36-.02.74-.07 1.13-.07.35 0 .71.05 1.12.07v-8.1c0-3.7-1.25-5.5-4.52-5.5a5.04 5.04 0 0 0-4.51 2.74v-2.56c-.41.03-.77.08-1.13.08-.38 0-.76-.05-1.12-.08v13.42zm19.13-.23c2.11 0 4.13.2 4.13 3.12 0 2.63-2.42 3.6-4.44 3.6-2.32 0-4.03-1.13-4.03-3.4-.03-2.27 1.4-3.34 4.34-3.32zm5.94-13.29c-.66.1-1.35.15-2.01.05l-3.9-.15c-4.12-.15-5.67 1.73-5.67 4.46 0 2.07 1.05 3.24 2.73 4.01-1.1.48-1.94 1.07-1.94 2.42 0 1.71.9 2.15 1.7 2.27v.23c-1.73.31-2.9 1.38-2.9 3.4 0 2.96 2.78 4.13 5.08 4.13 4.28 0 7.14-2.24 7.14-5.54 0-2.4-1.56-3.72-4.85-3.72h-1.78c-1.69 0-2.7-.18-2.7-1.35 0-1.64 1.68-1.36 2-1.36 3.27 0 5.98-1.3 5.98-4.36 0-1.58-.8-2.8-1.94-3.7l3.09.26v-1.05h-.03zm-9.46 4.36c0-2.14 1.14-3.67 3.16-3.67 2.22 0 3.01 1.66 3.01 3.83 0 1.91-1.07 3.67-3.11 3.67s-3.14-1.84-3.06-3.83zm27.63-10.48h-.64L119.5 60c.3-.02.62-.07 1-.07.33 0 .64.05 1.04.07.8-2.62 1.79-5.1 2.78-7.57h7.15a112.5 112.5 0 0 1 2.96 7.57c.48-.02.94-.07 1.48-.07.48 0 .92.05 1.45.07l-8.44-19.64zM131 51.24h-6.17l3.06-7.2 3.11 7.2zm8.42 8.77c.36-.02.74-.07 1.12-.07.36 0 .72.05 1.13.07v-21.1c-.44.03-.77.08-1.13.08-.38 0-.76-.05-1.12-.08v21.1zm6.89-6.35c0-2.6.84-6.3 4.1-6.3 3.04 0 3.88 2.83 3.88 5.59 0 3.26-1.02 6.1-3.85 6.1-2.88.02-4.13-2.38-4.13-5.39zm0 3.88h.05c.92 1.73 2.3 2.7 4.31 2.7 3.6 0 6.07-2.78 6.07-7.37 0-3.37-2.01-6.43-5.63-6.43-3.4 0-4.27 2.04-4.75 3.01h-.05v-2.83c-.44.02-.77.08-1.12.08-.39 0-.77-.06-1.13-.08v20.61c.36-.02.74-.07 1.13-.07.35 0 .68.05 1.12.07v-9.7zM159.15 60c.36-.02.74-.07 1.12-.07.36 0 .72.05 1.13.07v-7.6c0-2.94 1.14-4.5 3.67-4.5 2.4 0 3.11 1.56 3.11 4.67v7.45c.36-.02.74-.07 1.13-.07.35 0 .71.05 1.12.07v-8.1c0-3.56-1.28-5.5-4.52-5.5a5.04 5.04 0 0 0-4.51 2.74V38.9c-.44.03-.77.08-1.13.08-.38 0-.76-.05-1.12-.08V60zm23.65-8.87c0-3.17-1.6-4.72-4.54-4.72-1.66 0-3.16.6-4.51 1.55v1.58h.3c.2-.6 1.3-1.94 3.34-1.94 2.12 0 3.3 1.2 3.3 3.3 0 1.35-.77 1.5-2.99 1.88-2.65.44-5.2.85-5.2 4.06 0 2.07 1.73 3.42 3.72 3.42 1.68 0 2.99-.59 4.16-1.76l.25-.26c.23 1.66 1.43 1.9 2.89 1.64.3-.05.63-.2.84-.28v-.62c-1.66.36-1.58-.2-1.58-1.3v-6.55h.02zm-2.24 6c0 .2-.56.65-.77.86a3.65 3.65 0 0 1-2.24 1.07c-1.71 0-2.76-.87-2.76-2.63 0-2.55 2.86-2.83 4.77-3.21l.97-.2v4.1h.03z" fill="#fff"/><path d="M187.98 40.37c0 3.83 1.92 6.99 4.47 6.91 3.57-.1 4.62-3.11 4.62-6.94 0-3.82-2.07-6.96-4.62-6.94-3.14.03-4.47 3.14-4.47 6.97zm-2.78 0c.54-8.2 6.97-8.37 6.97-8.37 4.67.03 6 5 6 5 .07.28 2.77-4.64 2.77-4.64h1.53c-3.13 6.76-3 9.51-3 9.51-.26 3.65 1.78 4.9 1.78 4.9 1.91 1.23 2.04-2.34 2.04-2.34.43-.16.69-.31.69-.31 1.02 4.95-2.04 4.62-2.04 4.62-2.37.25-3.4-3.63-3.4-3.63-3.36 4.44-7.24 3.47-7.24 3.47-6.64-.81-6.1-8.21-6.1-8.21z" fill="#F37321"/></svg>